<svg fill="black" width="100mm" height="100mm" version="1.1" viewBox="0 0 100 100" xmlns="http://www.w3.org/2000/svg">
 <g>
  <path d="m50.001 23.123c-26.099 0-47.258 26.877-47.258 26.877s21.158 26.876 47.258 26.876c26.099 0 47.257-26.876 47.257-26.876s-21.157-26.877-47.257-26.877zm-0.0011 5.3719c11.823 0 21.507 9.6836 21.507 21.507 0 11.823-9.6836 21.503-21.507 21.503-11.823 0-21.508-9.6804-21.508-21.503 0-11.823 9.6846-21.507 21.508-21.507zm0 9.1831c-6.8601-5e-6 -12.325 5.4634-12.325 12.324 0 6.8601 5.4645 12.32 12.325 12.32 6.8601 0 12.324-5.4603 12.324-12.32 0-6.8601-5.4634-12.324-12.324-12.324z" style="fill-rule:evenodd"/>
 </g>
</svg>
