<svg version="1.1" viewBox="0 0 100 100" xmlns="http://www.w3.org/2000/svg">
 <g>
  <title>background</title>
  <rect id="canvas_background" x="-1" y="-1" width="102" height="102" fill="#ffffff"/>
  <g id="canvasGrid" x="0" y="0" width="100%" height="100%" display="none" overflow="visible">
   <rect width="100%" height="100%" fill="url(#gridpattern)" stroke-width="0"/>
  </g>
 </g>
 <g>
  <title>Layer 1</title>
  <ellipse cx="50" cy="50" rx="46" ry="46" fill="#fff" stroke="#367bbc" stroke-width="8" style="stroke:#4267c0"/>
  <g style="fill:#4267c0;font-variant-caps:normal;font-variant-east-asian:normal;font-variant-ligatures:normal;font-variant-numeric:normal;stroke-width:0" aria-label="i">
   <path d="m55.837 19.635q2.661 0 4.4635 1.8455 1.8455 1.8455 1.8455 4.4635 0 2.618-1.8455 4.4635t-4.4635 1.8455q-2.5751 0-4.4206-1.8455t-1.8455-4.4635q0-2.618 1.8026-4.4635 1.8455-1.8455 4.4635-1.8455zm2.661 19.743-8.7983 30.515q-0.72962 2.618-0.72962 3.4335 0 0.4721 0.38627 0.90129 0.38627 0.38627 0.81545 0.38627 0.72962 0 1.4592-0.64378 1.9313-1.588 4.6352-5.7511l1.4592 0.85837q-6.4807 11.288-13.777 11.288-2.7897 0-4.4635-1.5451-1.6309-1.588-1.6309-3.9914 0-1.588 0.72962-4.0343l5.9657-20.515q0.85837-2.9614 0.85837-4.4635 0-0.94421-0.81545-1.6738t-2.2318-0.72962q-0.64378 0-1.5451 0.04292l0.55794-1.7167 14.549-2.3605z" style="fill:#4267c0;font-variant-caps:normal;font-variant-east-asian:normal;font-variant-ligatures:normal;font-variant-numeric:normal;stroke-width:0"/>
  </g>
 </g>
</svg>
