<svg enable-background="new 0 0 100 100" fill="black" version="1.1" viewBox="0 0 100 100" xmlns="http://www.w3.org/2000/svg">
 <path d="m63.096 12.613 24.291 24.291 7.3928-7.3928c1.6898-1.7954 2.7459-4.2245 2.7459-6.7592s-1.0561-5.175-2.7459-6.9704l-10.561-10.561c-1.7954-1.6898-4.4357-2.7459-6.9704-2.7459-2.6403 0-4.9638 1.0561-6.7592 2.7459zm-60.621 84.912 9.0826-32.423c0.21122-0.8449 0.73928-1.5842 1.2673-2.1122l46.892-46.892 6.7592 6.6536-50.588 50.694-2.9571-2.9571-3.6964 13.307 6.9704 6.9704 13.413-3.5908-9.8219-9.9275 50.588-50.694 13.518 13.835-46.892 46.786c-0.52806 0.52806-1.1617 1.0561-2.1122 1.2673z" style="stroke-width:1.0561"/>
</svg>
