<svg fill="white" width="100mm" height="100mm" version="1.1" viewBox="0 0 100 100" xmlns="http://www.w3.org/2000/svg">
 <g>
  <path d="m4.1191 0a4.1204 4.1204 0 0 0-4.1191 4.1191v91.762a4.1204 4.1204 0 0 0 4.1191 4.1191h91.762a4.1204 4.1204 0 0 0 4.1191-4.1191v-91.762a4.1204 4.1204 0 0 0-4.1191-4.1191h-91.762zm4.1211 8.2402h83.52v83.52h-83.52v-83.52z" style="color-rendering:auto;dominant-baseline:auto;fill-rule:evenodd;font-feature-settings:normal;font-variant-alternates:normal;font-variant-caps:normal;font-variant-east-asian:normal;font-variant-ligatures:normal;font-variant-numeric:normal;font-variant-position:normal;font-variation-settings:normal;image-rendering:auto;inline-size:0;isolation:auto;mix-blend-mode:normal;shape-margin:0;shape-padding:0;shape-rendering:auto;text-decoration-line:none;text-decoration-style:solid;text-indent:0;text-orientation:mixed;text-transform:none;white-space:normal"/>
  <path d="m26.74 0a4.2513 4.2513 0 0 0-4.25 4.25v44.062a4.2513 4.2513 0 0 0 4.25 4.252h46.52a4.2513 4.2513 0 0 0 4.25-4.252v-44.062a4.2513 4.2513 0 0 0-4.25-4.25h-46.52zm4.252 8.502h38.016v35.561h-38.016v-35.561z" style="color-rendering:auto;dominant-baseline:auto;fill-rule:evenodd;font-feature-settings:normal;font-variant-alternates:normal;font-variant-caps:normal;font-variant-east-asian:normal;font-variant-ligatures:normal;font-variant-numeric:normal;font-variant-position:normal;font-variation-settings:normal;image-rendering:auto;inline-size:0;isolation:auto;mix-blend-mode:normal;shape-margin:0;shape-padding:0;shape-rendering:auto;text-decoration-line:none;text-decoration-style:solid;text-indent:0;text-orientation:mixed;text-transform:none;white-space:normal"/>
  <path d="m30.346 67a2.6812 2.6812 0 0 0-2.6816 2.6816v27.818a2.6812 2.6812 0 0 0 2.6816 2.6816h39.309a2.6812 2.6812 0 0 0 2.6816-2.6816v-27.818a2.6812 2.6812 0 0 0-2.6816-2.6816h-39.309zm2.6797 5.3613h33.949v22.457h-33.949v-22.457z" style="color-rendering:auto;dominant-baseline:auto;fill-rule:evenodd;font-feature-settings:normal;font-variant-alternates:normal;font-variant-caps:normal;font-variant-east-asian:normal;font-variant-ligatures:normal;font-variant-numeric:normal;font-variant-position:normal;font-variation-settings:normal;image-rendering:auto;inline-size:0;isolation:auto;mix-blend-mode:normal;shape-margin:0;shape-padding:0;shape-rendering:auto;text-decoration-line:none;text-decoration-style:solid;text-indent:0;text-orientation:mixed;text-transform:none;white-space:normal"/>
  <rect x="47.814" y="71.06" width="21.356" height="24.946" style="fill-rule:evenodd;stroke-width:0"/>
 </g>
</svg>
